<svg xmlns="http://www.w3.org/2000/svg" width="105.311" height="92.857" viewBox="0 0 105.311 92.857">
  <g id="Group_1" data-name="Group 1" transform="translate(-491.116 -1534.203)">
    <path id="Path_2" data-name="Path 2" d="M594.741,1579.816a18.3,18.3,0,0,0-1.912-2.8c-.391-.4-1.253-.35-1.9-.5a5,5,0,0,0-.206,1.938c.289.907.979,1.677,1.359,2.564,1.328,3.1,1.974,6.208-.438,9.142-2.632,3.2-6.1,3.975-9.941,3.109a40.747,40.747,0,0,1-5.609-2.171c1.544-3.54,1.477-7.26,5.144-9.734,2.086-1.408,3.141-4.505,4.3-7.008.307-.661-.711-1.937-1.121-2.931-.476.731-1.232,1.41-1.381,2.2-1,5.328-5.7,8.467-11.333,7.427-.633-.117-1.28-.56-1.859-.467a8.134,8.134,0,0,0-2.091.967c.459.517.835,1.343,1.393,1.493,1.944.525,3.952.815,5.93,1.194-1.227,8.435-7.977,13.4-16.155,11.8-3.43-.67-5.108-3.286-6.348-6.333-.362-.888-1.327-1.531-2.015-2.286-.19.967-.86,2.21-.488,2.853,1.837,3.18.572,5.528-1.67,7.7-2.759,2.67-5.993,4.381-9.917,3.628a39.993,39.993,0,0,1-6.195-2.279,48.9,48.9,0,0,0,3-4.6c.316-.622-.008-1.57-.041-2.37-.757.373-1.907.548-2.209,1.149-4.1,8.167-14.806,5.907-18.42-1.478-2.2-4.485-.978-8.389,3.884-11.138,2.061-1.165,2.3-2.123,1.585-4.281a8.33,8.33,0,0,1,9.123-10.7,3.664,3.664,0,0,1,.95.21c4.12,1.8,6.674,1.21,9.2-3.3,2.966-5.288,10.213-4.944,15.639-.385.988.83,2.439,1.109,3.677,1.643-.692-1.271-1.094-2.884-2.123-3.758-7.313-6.215-15.2-5.122-20.928,2.574a3.683,3.683,0,0,1-3.087.775c-7.033-1.473-11.844.224-14.294,5.629a11.941,11.941,0,0,0-1.163,6.21c.286,2.033.027,3.14-1.682,4.19a18.8,18.8,0,0,0-2.835,2.636c-5.124-3.226-5.638-9.436-.967-13.16,1.651-1.317,2.708-2.067.764-4.2-1.883-2.071.145-6.01,3.385-7.021,1.116-.348,2.408-.151,3.5-.536a5.278,5.278,0,0,0,2.809-1.81c2.413-4.317,4.429-5.1,9.34-3.422a9.4,9.4,0,0,0,2.869.044c-.616-.827-1.054-2.027-1.878-2.42-5.007-2.393-8.967-1.147-12.094,3.265a5.8,5.8,0,0,1-3.36,1.842c-6.177,1.288-8.5,4.659-7.424,10.858a3.122,3.122,0,0,1-.748,2.18c-4.073,4.929-3.907,10.8.307,15.511,1.117,1.25,1.712,2.965,2.737,4.808-4.539,1.372-7.94,1.416-11.005-1.055-3.935-3.171-4.2-6.779-.98-10.641a8.947,8.947,0,0,0,1.024-2.609c-.988.266-2.22.249-2.922.85-2.411,2.065-3.368,2.014-5.052-.7-3.028-4.882-2.185-8.6,2.866-11.9a25.864,25.864,0,0,0,2.6,2.654c.468.368,1.3.279,1.959.4.03-.7.087-1.4.067-2.1,0-.161-.3-.3-.421-.472-5.164-7.161-1.586-14.72,7.667-15.876a16.707,16.707,0,0,0,.051,3.154,6.474,6.474,0,0,0,1.157,1.9c.489-.6,1.411-1.2,1.4-1.792-.106-11.368,14.95-16.121,23.012-7.92.573.583,1.734.589,2.621.863a11.875,11.875,0,0,0-.812-2.695,8.974,8.974,0,0,0-1.811-1.779,12.734,12.734,0,0,1,19.787.785c-1.013,2.23-1.884,4.412-2.991,6.466-.511.947-1.549,1.594-2.231,2.468a23.6,23.6,0,0,0-1.5,2.46,10.127,10.127,0,0,0,2.82-.163c1.614-.564,3.094-1.873,4.7-2.009,2.366-.2,5.627-.535,7.037.771,3.641,3.372,9.785,3.451,11.687,8.865,1.857,5.287-.515,9.127-6.146,10.466a3.1,3.1,0,0,0-1.917,1.679c-2.112,6.005-6.439,7.77-12.2,4.845-3.919-1.99-3.919-1.99-5.563,1.831-2.632,6.116-6.841,7.615-12.777,4.543a8.061,8.061,0,0,0-1.693-.929,13.7,13.7,0,0,0-2.482-.139c.322.791.414,1.937,1,2.319,6.763,4.385,13.663,4.777,18.065-3.924.282-.558.63-1.081.985-1.683,1.383.509,2.668,1.043,3.99,1.457a10.459,10.459,0,0,0,12.618-5.234c.506-.932,1.385-2.235,2.211-2.331,7.371-.85,9.072-12.186,4.565-17.132-.641-.7-1.269-1.416-1.977-2.207,3.242-2.763,6.764-3.293,10.369-1.713,4.349,1.907,8.022,4.637,8.907,10.069a33.276,33.276,0,0,0-4.556.682c-.612.176-1.024,1.049-1.527,1.606.668.333,1.362,1,2,.949,7.319-.573,10,1.709,10.006,8.994a63.056,63.056,0,0,1-.841,7.445Z" fill="#009db5"/>
    <path id="Path_3" data-name="Path 3" d="M549.244,1601.332c1.391-1.767,2.648-3.365,3.9-4.964,6.987,3.837,13.892,3.159,20.319-1.876a3.224,3.224,0,0,1,2.456-.494c3.392.877,6.735,1.941,10.316,3,.471,4.606-4.286,11.163-10.215,13.365C566.876,1613.762,556.749,1610.457,549.244,1601.332Z" fill="#009db5"/>
    <path id="Path_4" data-name="Path 4" d="M542.41,1604.407c2.539-1.622,4.559-1.324,7.178,1.177,3.121,2.98,7.266,4.87,10.862,7.382a4.2,4.2,0,0,1,1.822,2.708,23.323,23.323,0,0,1-.719,7.373,7.117,7.117,0,0,1-3.418,3.978c-.661.306-2.834-1.52-3.6-2.807-1.3-2.2-1.7-4.943-3.064-7.078C548.7,1612.807,545.52,1608.728,542.41,1604.407Z" fill="#009db5"/>
    <path id="Path_5" data-name="Path 5" d="M553.322,1545.568c1.187-3.957,3.4-5.653,7.354-5.932,5.946-.42,11.156,2.3,13.348,6.974-1.745,1.176-3.452,2.424-5.268,3.488a2.127,2.127,0,0,1-1.957,0A14.542,14.542,0,0,0,553.322,1545.568Z" fill="#009db5"/>
  </g>
</svg>
