<svg xmlns="http://www.w3.org/2000/svg" width="82.805" height="77.18" viewBox="0 0 82.805 77.18">
  <g id="Group_2" data-name="Group 2" transform="translate(-546.119 -1242.674)">
    <path id="Path_6" data-name="Path 6" d="M554.889,1294.793c3.218-.831,5.289-2.681,6.063-5.845a7.5,7.5,0,0,0-14.079-4.9,7.439,7.439,0,0,0,3.433,10,1.223,1.223,0,0,1,.763,1.166,31.262,31.262,0,0,0,6.5,17.563c5.774,7.228,14.223,9.043,22.652,4.852A32.021,32.021,0,0,0,595.892,1301a1.2,1.2,0,0,1,.742-.577,6.738,6.738,0,0,0,3.883-2.523,1.558,1.558,0,0,1,.8-.592,25.36,25.36,0,0,0,12.122-6.449,55.824,55.824,0,0,0,4.9-5.044,7.791,7.791,0,0,0,.94-2.432,3.731,3.731,0,0,1,.349-.949,48.475,48.475,0,0,0,8.96-20.727,22.6,22.6,0,0,0,.324-2.875,6.94,6.94,0,0,0-4.285-7.015c-.2-.1-.5-.13-.6-.289-.948-1.551-2.638-1.575-4.111-2.031-.951-.3-1.917-.548-2.884-.79a2.521,2.521,0,0,0-3.148,1.667,2.437,2.437,0,0,0,1.651,3.22c2.251.585,4.4,1.611,6.824,1.523A3.061,3.061,0,0,1,625,1258a30.333,30.333,0,0,1-.632,5.055,42.669,42.669,0,0,1-7.5,16.589c-.26.357-.792.516-1.2.763a9.393,9.393,0,0,0-2.222,1.384,37.852,37.852,0,0,1-7.193,6.536,13.985,13.985,0,0,1-7.98,2.776,7.654,7.654,0,0,1-5.244-2.329,18.177,18.177,0,0,1-4.576-7.623c-.643-1.914-1.015-3.919-1.618-5.849a15.511,15.511,0,0,0-1.2-2.332,2.985,2.985,0,0,1-.4-.932,44.649,44.649,0,0,1,3.088-22.517c.812-1.981,1.753-2.672,3.481-2.628a2.688,2.688,0,0,1,.755.125c2.16.7,4.3,1.468,6.479,2.085a2.462,2.462,0,0,0,3.163-1.9,2.518,2.518,0,0,0-1.933-3.07c-1.671-.472-3.345-.937-5.028-1.364a3.983,3.983,0,0,0-1.326-.068c-.94.088-1.872.3-2.812.346a6.59,6.59,0,0,0-5.985,4.324,46.76,46.76,0,0,0-4.011,20.871c.035.931.076,1.864.161,2.791.1,1.1.333,2.168-.526,3.167a2.267,2.267,0,0,0-.266,1.655c.983,5.715,2.76,11.114,6.425,15.732a6.091,6.091,0,0,0,.435.516c1.394,1.415,2.935,2.682,3.2,4.906a4.182,4.182,0,0,0,1.334,1.952.9.9,0,0,1,.214,1.175c-3.514,7.281-8.807,12.683-16.613,15.159-6.116,1.94-11.584-.2-15.583-5.844A28.752,28.752,0,0,1,554.889,1294.793Zm-2.34-2.959a4.712,4.712,0,1,1,5.743-3.411A4.731,4.731,0,0,1,552.549,1291.834Z" fill="#009db5"/>
    <path id="Path_7" data-name="Path 7" d="M550.791,1286.494a2.936,2.936,0,0,0,2.141,3.641,2.987,2.987,0,0,0,3.59-2.125,3.03,3.03,0,0,0-2.066-3.638A2.975,2.975,0,0,0,550.791,1286.494Z" fill="#009db5"/>
  </g>
</svg>
