<svg xmlns="http://www.w3.org/2000/svg" width="89.818" height="107.855" viewBox="0 0 89.818 107.855">
  <path id="Path_1" data-name="Path 1" d="M110.622,1143.559c-.473-9.622,7.395-16.389,15.682-17.351a47.98,47.98,0,0,1,13.875.849c4.241.741,8.472,1.544,12.724,2.216a26.043,26.043,0,0,0,8.791-.482c4.662-.851,9.31-1.821,14-2.45,4.8-.643,9.606-.564,14.195,1.361a16.933,16.933,0,0,1,10.309,15.409c.068,4.928-1.191,9.574-2.73,14.17-1.956,5.842-4.052,11.639-5.953,17.5A59.575,59.575,0,0,0,189.1,1189.7c-.64,10.548-1.989,20.99-5.925,30.915a28.958,28.958,0,0,1-5.008,8.55,13.8,13.8,0,0,1-7.368,4.6c-.821.191-1.239-.008-1.387-.818-.5-2.771-1.145-5.526-1.489-8.317-1.13-9.172-2.051-18.371-3.256-27.533a49.3,49.3,0,0,0-3.893-14.3,12.6,12.6,0,0,0-3.73-5.034c-.148-.111-.3-.216-.459-.315-1.4-.874-1.663-.86-2.921.217-2.544,2.179-3.905,5.089-4.985,8.159a61.27,61.27,0,0,0-2.947,13.41c-.855,7.458-1.457,14.945-2.328,22.4-.409,3.5-1.117,6.97-1.845,10.421-.384,1.817-.59,1.836-2.431,1.569a6.877,6.877,0,0,1-4.058-2.26c-6-6.315-9.3-13.968-11.176-22.336a108.665,108.665,0,0,1-2.28-17.691c-.209-3.711-.365-7.445-.918-11.113-.752-4.978-2.71-9.64-4.33-14.387-1.7-4.977-3.355-9.973-4.805-15.025a59,59,0,0,1-1.178-7.223Z" transform="translate(-110.386 -1125.979)" fill="#009db5"/>
</svg>
